<svg xmlns="http://www.w3.org/2000/svg" xmlns:xlink="http://www.w3.org/1999/xlink" width="600" height="400" viewBox="0 0 2400 1600">
<defs>
  <clipPath id="clip320">
    <rect x="0" y="0" width="2400" height="1600"></rect>
  </clipPath>
</defs>
<path clip-path="url(#clip320)" d="M0 1600 L2400 1600 L2400 8.88178e-14 L0 8.88178e-14  Z" fill="#ffffff" fill-rule="evenodd" fill-opacity="1"></path>
<defs>
  <clipPath id="clip321">
    <rect x="480" y="0" width="1681" height="1600"></rect>
  </clipPath>
</defs>
<path clip-path="url(#clip320)" d="M155.765 1423.18 L2352.76 1423.18 L2352.76 47.2441 L155.765 47.2441  Z" fill="#ffffff" fill-rule="evenodd" fill-opacity="1"></path>
<defs>
  <clipPath id="clip322">
    <rect x="155" y="47" width="2198" height="1377"></rect>
  </clipPath>
</defs>
<polyline clip-path="url(#clip322)" style="stroke:#000000; stroke-linecap:round; stroke-linejoin:round; stroke-width:2; stroke-opacity:0.1; fill:none" points="217.944,1423.18 217.944,47.2441 "></polyline>
<polyline clip-path="url(#clip322)" style="stroke:#000000; stroke-linecap:round; stroke-linejoin:round; stroke-width:2; stroke-opacity:0.1; fill:none" points="736.102,1423.18 736.102,47.2441 "></polyline>
<polyline clip-path="url(#clip322)" style="stroke:#000000; stroke-linecap:round; stroke-linejoin:round; stroke-width:2; stroke-opacity:0.1; fill:none" points="1254.26,1423.18 1254.26,47.2441 "></polyline>
<polyline clip-path="url(#clip322)" style="stroke:#000000; stroke-linecap:round; stroke-linejoin:round; stroke-width:2; stroke-opacity:0.1; fill:none" points="1772.42,1423.18 1772.42,47.2441 "></polyline>
<polyline clip-path="url(#clip322)" style="stroke:#000000; stroke-linecap:round; stroke-linejoin:round; stroke-width:2; stroke-opacity:0.1; fill:none" points="2290.58,1423.18 2290.58,47.2441 "></polyline>
<polyline clip-path="url(#clip320)" style="stroke:#000000; stroke-linecap:round; stroke-linejoin:round; stroke-width:4; stroke-opacity:1; fill:none" points="155.765,1423.18 2352.76,1423.18 "></polyline>
<polyline clip-path="url(#clip320)" style="stroke:#000000; stroke-linecap:round; stroke-linejoin:round; stroke-width:4; stroke-opacity:1; fill:none" points="217.944,1423.18 217.944,1404.28 "></polyline>
<polyline clip-path="url(#clip320)" style="stroke:#000000; stroke-linecap:round; stroke-linejoin:round; stroke-width:4; stroke-opacity:1; fill:none" points="736.102,1423.18 736.102,1404.28 "></polyline>
<polyline clip-path="url(#clip320)" style="stroke:#000000; stroke-linecap:round; stroke-linejoin:round; stroke-width:4; stroke-opacity:1; fill:none" points="1254.26,1423.18 1254.26,1404.28 "></polyline>
<polyline clip-path="url(#clip320)" style="stroke:#000000; stroke-linecap:round; stroke-linejoin:round; stroke-width:4; stroke-opacity:1; fill:none" points="1772.42,1423.18 1772.42,1404.28 "></polyline>
<polyline clip-path="url(#clip320)" style="stroke:#000000; stroke-linecap:round; stroke-linejoin:round; stroke-width:4; stroke-opacity:1; fill:none" points="2290.58,1423.18 2290.58,1404.28 "></polyline>
<path clip-path="url(#clip320)" d="M195.328 1454.1 Q191.717 1454.1 189.888 1457.66 Q188.083 1461.2 188.083 1468.33 Q188.083 1475.44 189.888 1479.01 Q191.717 1482.55 195.328 1482.55 Q198.963 1482.55 200.768 1479.01 Q202.597 1475.44 202.597 1468.33 Q202.597 1461.2 200.768 1457.66 Q198.963 1454.1 195.328 1454.1 M195.328 1450.39 Q201.138 1450.39 204.194 1455 Q207.273 1459.58 207.273 1468.33 Q207.273 1477.06 204.194 1481.67 Q201.138 1486.25 195.328 1486.25 Q189.518 1486.25 186.439 1481.67 Q183.384 1477.06 183.384 1468.33 Q183.384 1459.58 186.439 1455 Q189.518 1450.39 195.328 1450.39 Z" fill="#000000" fill-rule="nonzero" fill-opacity="1"></path><path clip-path="url(#clip320)" d="M215.49 1479.7 L220.374 1479.7 L220.374 1485.58 L215.49 1485.58 L215.49 1479.7 Z" fill="#000000" fill-rule="nonzero" fill-opacity="1"></path><path clip-path="url(#clip320)" d="M240.56 1454.1 Q236.948 1454.1 235.12 1457.66 Q233.314 1461.2 233.314 1468.33 Q233.314 1475.44 235.12 1479.01 Q236.948 1482.55 240.56 1482.55 Q244.194 1482.55 245.999 1479.01 Q247.828 1475.44 247.828 1468.33 Q247.828 1461.2 245.999 1457.66 Q244.194 1454.1 240.56 1454.1 M240.56 1450.39 Q246.37 1450.39 249.425 1455 Q252.504 1459.58 252.504 1468.33 Q252.504 1477.06 249.425 1481.67 Q246.37 1486.25 240.56 1486.25 Q234.749 1486.25 231.671 1481.67 Q228.615 1477.06 228.615 1468.33 Q228.615 1459.58 231.671 1455 Q234.749 1450.39 240.56 1450.39 Z" fill="#000000" fill-rule="nonzero" fill-opacity="1"></path><path clip-path="url(#clip320)" d="M707.838 1481.64 L724.158 1481.64 L724.158 1485.58 L702.213 1485.58 L702.213 1481.64 Q704.875 1478.89 709.459 1474.26 Q714.065 1469.61 715.246 1468.27 Q717.491 1465.74 718.371 1464.01 Q719.274 1462.25 719.274 1460.56 Q719.274 1457.8 717.329 1456.07 Q715.408 1454.33 712.306 1454.33 Q710.107 1454.33 707.653 1455.09 Q705.223 1455.86 702.445 1457.41 L702.445 1452.69 Q705.269 1451.55 707.723 1450.97 Q710.176 1450.39 712.213 1450.39 Q717.584 1450.39 720.778 1453.08 Q723.973 1455.77 723.973 1460.26 Q723.973 1462.39 723.162 1464.31 Q722.375 1466.2 720.269 1468.8 Q719.69 1469.47 716.588 1472.69 Q713.487 1475.88 707.838 1481.64 Z" fill="#000000" fill-rule="nonzero" fill-opacity="1"></path><path clip-path="url(#clip320)" d="M733.973 1479.7 L738.857 1479.7 L738.857 1485.58 L733.973 1485.58 L733.973 1479.7 Z" fill="#000000" fill-rule="nonzero" fill-opacity="1"></path><path clip-path="url(#clip320)" d="M749.088 1451.02 L767.445 1451.02 L767.445 1454.96 L753.371 1454.96 L753.371 1463.43 Q754.389 1463.08 755.408 1462.92 Q756.426 1462.73 757.445 1462.73 Q763.232 1462.73 766.611 1465.9 Q769.991 1469.08 769.991 1474.49 Q769.991 1480.07 766.519 1483.17 Q763.046 1486.25 756.727 1486.25 Q754.551 1486.25 752.283 1485.88 Q750.037 1485.51 747.63 1484.77 L747.63 1480.07 Q749.713 1481.2 751.935 1481.76 Q754.158 1482.32 756.634 1482.32 Q760.639 1482.32 762.977 1480.21 Q765.315 1478.1 765.315 1474.49 Q765.315 1470.88 762.977 1468.77 Q760.639 1466.67 756.634 1466.67 Q754.759 1466.67 752.884 1467.08 Q751.033 1467.5 749.088 1468.38 L749.088 1451.02 Z" fill="#000000" fill-rule="nonzero" fill-opacity="1"></path><path clip-path="url(#clip320)" d="M1221.42 1451.02 L1239.78 1451.02 L1239.78 1454.96 L1225.71 1454.96 L1225.71 1463.43 Q1226.73 1463.08 1227.74 1462.92 Q1228.76 1462.73 1229.78 1462.73 Q1235.57 1462.73 1238.95 1465.9 Q1242.33 1469.08 1242.33 1474.49 Q1242.33 1480.07 1238.86 1483.17 Q1235.38 1486.25 1229.06 1486.25 Q1226.89 1486.25 1224.62 1485.88 Q1222.37 1485.51 1219.97 1484.77 L1219.97 1480.07 Q1222.05 1481.2 1224.27 1481.76 Q1226.49 1482.32 1228.97 1482.32 Q1232.98 1482.32 1235.31 1480.21 Q1237.65 1478.1 1237.65 1474.49 Q1237.65 1470.88 1235.31 1468.77 Q1232.98 1466.67 1228.97 1466.67 Q1227.1 1466.67 1225.22 1467.08 Q1223.37 1467.5 1221.42 1468.38 L1221.42 1451.02 Z" fill="#000000" fill-rule="nonzero" fill-opacity="1"></path><path clip-path="url(#clip320)" d="M1251.54 1479.7 L1256.42 1479.7 L1256.42 1485.58 L1251.54 1485.58 L1251.54 1479.7 Z" fill="#000000" fill-rule="nonzero" fill-opacity="1"></path><path clip-path="url(#clip320)" d="M1276.61 1454.1 Q1273 1454.1 1271.17 1457.66 Q1269.36 1461.2 1269.36 1468.33 Q1269.36 1475.44 1271.17 1479.01 Q1273 1482.55 1276.61 1482.55 Q1280.24 1482.55 1282.05 1479.01 Q1283.88 1475.44 1283.88 1468.33 Q1283.88 1461.2 1282.05 1457.66 Q1280.24 1454.1 1276.61 1454.1 M1276.61 1450.39 Q1282.42 1450.39 1285.48 1455 Q1288.55 1459.58 1288.55 1468.33 Q1288.55 1477.06 1285.48 1481.67 Q1282.42 1486.25 1276.61 1486.25 Q1270.8 1486.25 1267.72 1481.67 Q1264.67 1477.06 1264.67 1468.33 Q1264.67 1459.58 1267.72 1455 Q1270.8 1450.39 1276.61 1450.39 Z" fill="#000000" fill-rule="nonzero" fill-opacity="1"></path><path clip-path="url(#clip320)" d="M1738.74 1451.02 L1760.96 1451.02 L1760.96 1453.01 L1748.41 1485.58 L1743.53 1485.58 L1755.34 1454.96 L1738.74 1454.96 L1738.74 1451.02 Z" fill="#000000" fill-rule="nonzero" fill-opacity="1"></path><path clip-path="url(#clip320)" d="M1770.08 1479.7 L1774.96 1479.7 L1774.96 1485.58 L1770.08 1485.58 L1770.08 1479.7 Z" fill="#000000" fill-rule="nonzero" fill-opacity="1"></path><path clip-path="url(#clip320)" d="M1785.2 1451.02 L1803.55 1451.02 L1803.55 1454.96 L1789.48 1454.96 L1789.48 1463.43 Q1790.5 1463.08 1791.52 1462.92 Q1792.53 1462.73 1793.55 1462.73 Q1799.34 1462.73 1802.72 1465.9 Q1806.1 1469.08 1806.1 1474.49 Q1806.1 1480.07 1802.63 1483.17 Q1799.15 1486.25 1792.84 1486.25 Q1790.66 1486.25 1788.39 1485.88 Q1786.15 1485.51 1783.74 1484.77 L1783.74 1480.07 Q1785.82 1481.2 1788.04 1481.76 Q1790.27 1482.32 1792.74 1482.32 Q1796.75 1482.32 1799.09 1480.21 Q1801.42 1478.1 1801.42 1474.49 Q1801.42 1470.88 1799.09 1468.77 Q1796.75 1466.67 1792.74 1466.67 Q1790.87 1466.67 1788.99 1467.08 Q1787.14 1467.5 1785.2 1468.38 L1785.2 1451.02 Z" fill="#000000" fill-rule="nonzero" fill-opacity="1"></path><path clip-path="url(#clip320)" d="M2242.65 1481.64 L2250.29 1481.64 L2250.29 1455.28 L2241.98 1456.95 L2241.98 1452.69 L2250.24 1451.02 L2254.92 1451.02 L2254.92 1481.64 L2262.56 1481.64 L2262.56 1485.58 L2242.65 1485.58 L2242.65 1481.64 Z" fill="#000000" fill-rule="nonzero" fill-opacity="1"></path><path clip-path="url(#clip320)" d="M2282 1454.1 Q2278.39 1454.1 2276.56 1457.66 Q2274.76 1461.2 2274.76 1468.33 Q2274.76 1475.44 2276.56 1479.01 Q2278.39 1482.55 2282 1482.55 Q2285.63 1482.55 2287.44 1479.01 Q2289.27 1475.44 2289.27 1468.33 Q2289.27 1461.2 2287.44 1457.66 Q2285.63 1454.1 2282 1454.1 M2282 1450.39 Q2287.81 1450.39 2290.87 1455 Q2293.94 1459.58 2293.94 1468.33 Q2293.94 1477.06 2290.87 1481.67 Q2287.81 1486.25 2282 1486.25 Q2276.19 1486.25 2273.11 1481.67 Q2270.06 1477.06 2270.06 1468.33 Q2270.06 1459.58 2273.11 1455 Q2276.19 1450.39 2282 1450.39 Z" fill="#000000" fill-rule="nonzero" fill-opacity="1"></path><path clip-path="url(#clip320)" d="M2302.16 1479.7 L2307.05 1479.7 L2307.05 1485.58 L2302.16 1485.58 L2302.16 1479.7 Z" fill="#000000" fill-rule="nonzero" fill-opacity="1"></path><path clip-path="url(#clip320)" d="M2327.23 1454.1 Q2323.62 1454.1 2321.79 1457.66 Q2319.99 1461.2 2319.99 1468.33 Q2319.99 1475.44 2321.79 1479.01 Q2323.62 1482.55 2327.23 1482.55 Q2330.87 1482.55 2332.67 1479.01 Q2334.5 1475.44 2334.5 1468.33 Q2334.5 1461.2 2332.67 1457.66 Q2330.87 1454.1 2327.23 1454.1 M2327.23 1450.39 Q2333.04 1450.39 2336.1 1455 Q2339.18 1459.58 2339.18 1468.33 Q2339.18 1477.06 2336.1 1481.67 Q2333.04 1486.25 2327.23 1486.25 Q2321.42 1486.25 2318.34 1481.67 Q2315.29 1477.06 2315.29 1468.33 Q2315.29 1459.58 2318.34 1455 Q2321.42 1450.39 2327.23 1450.39 Z" fill="#000000" fill-rule="nonzero" fill-opacity="1"></path><path clip-path="url(#clip320)" d="M1270.87 1532.4 L1257.98 1549.74 L1271.54 1568.04 L1264.64 1568.04 L1254.26 1554.04 L1243.88 1568.04 L1236.98 1568.04 L1250.82 1549.39 L1238.16 1532.4 L1245.06 1532.4 L1254.52 1545.1 L1263.97 1532.4 L1270.87 1532.4 Z" fill="#000000" fill-rule="nonzero" fill-opacity="1"></path><polyline clip-path="url(#clip322)" style="stroke:#000000; stroke-linecap:round; stroke-linejoin:round; stroke-width:2; stroke-opacity:0.1; fill:none" points="155.765,1203.23 2352.76,1203.23 "></polyline>
<polyline clip-path="url(#clip322)" style="stroke:#000000; stroke-linecap:round; stroke-linejoin:round; stroke-width:2; stroke-opacity:0.1; fill:none" points="155.765,974.736 2352.76,974.736 "></polyline>
<polyline clip-path="url(#clip322)" style="stroke:#000000; stroke-linecap:round; stroke-linejoin:round; stroke-width:2; stroke-opacity:0.1; fill:none" points="155.765,746.242 2352.76,746.242 "></polyline>
<polyline clip-path="url(#clip322)" style="stroke:#000000; stroke-linecap:round; stroke-linejoin:round; stroke-width:2; stroke-opacity:0.1; fill:none" points="155.765,517.748 2352.76,517.748 "></polyline>
<polyline clip-path="url(#clip322)" style="stroke:#000000; stroke-linecap:round; stroke-linejoin:round; stroke-width:2; stroke-opacity:0.1; fill:none" points="155.765,289.254 2352.76,289.254 "></polyline>
<polyline clip-path="url(#clip322)" style="stroke:#000000; stroke-linecap:round; stroke-linejoin:round; stroke-width:2; stroke-opacity:0.1; fill:none" points="155.765,60.7602 2352.76,60.7602 "></polyline>
<polyline clip-path="url(#clip320)" style="stroke:#000000; stroke-linecap:round; stroke-linejoin:round; stroke-width:4; stroke-opacity:1; fill:none" points="155.765,1423.18 155.765,47.2441 "></polyline>
<polyline clip-path="url(#clip320)" style="stroke:#000000; stroke-linecap:round; stroke-linejoin:round; stroke-width:4; stroke-opacity:1; fill:none" points="155.765,1203.23 174.663,1203.23 "></polyline>
<polyline clip-path="url(#clip320)" style="stroke:#000000; stroke-linecap:round; stroke-linejoin:round; stroke-width:4; stroke-opacity:1; fill:none" points="155.765,974.736 174.663,974.736 "></polyline>
<polyline clip-path="url(#clip320)" style="stroke:#000000; stroke-linecap:round; stroke-linejoin:round; stroke-width:4; stroke-opacity:1; fill:none" points="155.765,746.242 174.663,746.242 "></polyline>
<polyline clip-path="url(#clip320)" style="stroke:#000000; stroke-linecap:round; stroke-linejoin:round; stroke-width:4; stroke-opacity:1; fill:none" points="155.765,517.748 174.663,517.748 "></polyline>
<polyline clip-path="url(#clip320)" style="stroke:#000000; stroke-linecap:round; stroke-linejoin:round; stroke-width:4; stroke-opacity:1; fill:none" points="155.765,289.254 174.663,289.254 "></polyline>
<polyline clip-path="url(#clip320)" style="stroke:#000000; stroke-linecap:round; stroke-linejoin:round; stroke-width:4; stroke-opacity:1; fill:none" points="155.765,60.7602 174.663,60.7602 "></polyline>
<path clip-path="url(#clip320)" d="M53.3995 1216.58 L61.0384 1216.58 L61.0384 1190.21 L52.7282 1191.88 L52.7282 1187.62 L60.9921 1185.95 L65.668 1185.95 L65.668 1216.58 L73.3068 1216.58 L73.3068 1220.51 L53.3995 1220.51 L53.3995 1216.58 Z" fill="#000000" fill-rule="nonzero" fill-opacity="1"></path><path clip-path="url(#clip320)" d="M82.7512 1214.63 L87.6354 1214.63 L87.6354 1220.51 L82.7512 1220.51 L82.7512 1214.63 Z" fill="#000000" fill-rule="nonzero" fill-opacity="1"></path><path clip-path="url(#clip320)" d="M107.821 1189.03 Q104.209 1189.03 102.381 1192.59 Q100.575 1196.14 100.575 1203.27 Q100.575 1210.37 102.381 1213.94 Q104.209 1217.48 107.821 1217.48 Q111.455 1217.48 113.26 1213.94 Q115.089 1210.37 115.089 1203.27 Q115.089 1196.14 113.26 1192.59 Q111.455 1189.03 107.821 1189.03 M107.821 1185.33 Q113.631 1185.33 116.686 1189.93 Q119.765 1194.52 119.765 1203.27 Q119.765 1211.99 116.686 1216.6 Q113.631 1221.18 107.821 1221.18 Q102.01 1221.18 98.9317 1216.6 Q95.8761 1211.99 95.8761 1203.27 Q95.8761 1194.52 98.9317 1189.93 Q102.01 1185.33 107.821 1185.33 Z" fill="#000000" fill-rule="nonzero" fill-opacity="1"></path><path clip-path="url(#clip320)" d="M54.3949 988.081 L62.0337 988.081 L62.0337 961.716 L53.7236 963.382 L53.7236 959.123 L61.9874 957.456 L66.6633 957.456 L66.6633 988.081 L74.3022 988.081 L74.3022 992.016 L54.3949 992.016 L54.3949 988.081 Z" fill="#000000" fill-rule="nonzero" fill-opacity="1"></path><path clip-path="url(#clip320)" d="M83.7466 986.137 L88.6308 986.137 L88.6308 992.016 L83.7466 992.016 L83.7466 986.137 Z" fill="#000000" fill-rule="nonzero" fill-opacity="1"></path><path clip-path="url(#clip320)" d="M98.8622 957.456 L117.219 957.456 L117.219 961.391 L103.145 961.391 L103.145 969.864 Q104.163 969.516 105.182 969.354 Q106.2 969.169 107.219 969.169 Q113.006 969.169 116.385 972.34 Q119.765 975.512 119.765 980.928 Q119.765 986.507 116.293 989.609 Q112.82 992.688 106.501 992.688 Q104.325 992.688 102.057 992.317 Q99.8113 991.947 97.4039 991.206 L97.4039 986.507 Q99.4872 987.641 101.709 988.197 Q103.932 988.752 106.408 988.752 Q110.413 988.752 112.751 986.646 Q115.089 984.54 115.089 980.928 Q115.089 977.317 112.751 975.211 Q110.413 973.104 106.408 973.104 Q104.534 973.104 102.659 973.521 Q100.807 973.938 98.8622 974.817 L98.8622 957.456 Z" fill="#000000" fill-rule="nonzero" fill-opacity="1"></path><path clip-path="url(#clip320)" d="M56.6171 759.587 L72.9365 759.587 L72.9365 763.522 L50.9921 763.522 L50.9921 759.587 Q53.6541 756.833 58.2375 752.203 Q62.8439 747.55 64.0245 746.208 Q66.2698 743.684 67.1494 741.948 Q68.0522 740.189 68.0522 738.499 Q68.0522 735.745 66.1078 734.009 Q64.1865 732.272 61.0847 732.272 Q58.8856 732.272 56.4319 733.036 Q54.0014 733.8 51.2236 735.351 L51.2236 730.629 Q54.0477 729.495 56.5014 728.916 Q58.955 728.337 60.9921 728.337 Q66.3624 728.337 69.5568 731.022 Q72.7513 733.708 72.7513 738.198 Q72.7513 740.328 71.9411 742.249 Q71.1541 744.147 69.0476 746.74 Q68.4689 747.411 65.367 750.629 Q62.2652 753.823 56.6171 759.587 Z" fill="#000000" fill-rule="nonzero" fill-opacity="1"></path><path clip-path="url(#clip320)" d="M82.7512 757.643 L87.6354 757.643 L87.6354 763.522 L82.7512 763.522 L82.7512 757.643 Z" fill="#000000" fill-rule="nonzero" fill-opacity="1"></path><path clip-path="url(#clip320)" d="M107.821 732.041 Q104.209 732.041 102.381 735.606 Q100.575 739.147 100.575 746.277 Q100.575 753.383 102.381 756.948 Q104.209 760.49 107.821 760.49 Q111.455 760.49 113.26 756.948 Q115.089 753.383 115.089 746.277 Q115.089 739.147 113.26 735.606 Q111.455 732.041 107.821 732.041 M107.821 728.337 Q113.631 728.337 116.686 732.944 Q119.765 737.527 119.765 746.277 Q119.765 755.004 116.686 759.61 Q113.631 764.194 107.821 764.194 Q102.01 764.194 98.9317 759.61 Q95.8761 755.004 95.8761 746.277 Q95.8761 737.527 98.9317 732.944 Q102.01 728.337 107.821 728.337 Z" fill="#000000" fill-rule="nonzero" fill-opacity="1"></path><path clip-path="url(#clip320)" d="M57.6125 531.093 L73.9318 531.093 L73.9318 535.028 L51.9875 535.028 L51.9875 531.093 Q54.6495 528.338 59.2328 523.709 Q63.8393 519.056 65.0198 517.714 Q67.2652 515.19 68.1448 513.454 Q69.0476 511.695 69.0476 510.005 Q69.0476 507.251 67.1032 505.515 Q65.1819 503.778 62.08 503.778 Q59.881 503.778 57.4273 504.542 Q54.9967 505.306 52.219 506.857 L52.219 502.135 Q55.043 501.001 57.4967 500.422 Q59.9504 499.843 61.9874 499.843 Q67.3578 499.843 70.5522 502.528 Q73.7466 505.214 73.7466 509.704 Q73.7466 511.834 72.9365 513.755 Q72.1494 515.653 70.0429 518.246 Q69.4642 518.917 66.3624 522.135 Q63.2606 525.329 57.6125 531.093 Z" fill="#000000" fill-rule="nonzero" fill-opacity="1"></path><path clip-path="url(#clip320)" d="M83.7466 529.149 L88.6308 529.149 L88.6308 535.028 L83.7466 535.028 L83.7466 529.149 Z" fill="#000000" fill-rule="nonzero" fill-opacity="1"></path><path clip-path="url(#clip320)" d="M98.8622 500.468 L117.219 500.468 L117.219 504.403 L103.145 504.403 L103.145 512.876 Q104.163 512.528 105.182 512.366 Q106.2 512.181 107.219 512.181 Q113.006 512.181 116.385 515.352 Q119.765 518.524 119.765 523.94 Q119.765 529.519 116.293 532.621 Q112.82 535.7 106.501 535.7 Q104.325 535.7 102.057 535.329 Q99.8113 534.959 97.4039 534.218 L97.4039 529.519 Q99.4872 530.653 101.709 531.209 Q103.932 531.764 106.408 531.764 Q110.413 531.764 112.751 529.658 Q115.089 527.551 115.089 523.94 Q115.089 520.329 112.751 518.223 Q110.413 516.116 106.408 516.116 Q104.534 516.116 102.659 516.533 Q100.807 516.95 98.8622 517.829 L98.8622 500.468 Z" fill="#000000" fill-rule="nonzero" fill-opacity="1"></path><path clip-path="url(#clip320)" d="M66.7559 287.9 Q70.1124 288.618 71.9874 290.886 Q73.8855 293.155 73.8855 296.488 Q73.8855 301.604 70.367 304.405 Q66.8485 307.206 60.3671 307.206 Q58.1912 307.206 55.8764 306.766 Q53.5847 306.349 51.131 305.493 L51.131 300.979 Q53.0754 302.113 55.3903 302.692 Q57.7051 303.27 60.2282 303.27 Q64.6263 303.27 66.918 301.534 Q69.2328 299.798 69.2328 296.488 Q69.2328 293.432 67.08 291.719 Q64.9504 289.983 61.131 289.983 L57.1032 289.983 L57.1032 286.141 L61.3161 286.141 Q64.7652 286.141 66.5939 284.775 Q68.4226 283.386 68.4226 280.794 Q68.4226 278.132 66.5245 276.72 Q64.6495 275.284 61.131 275.284 Q59.2097 275.284 57.0106 275.701 Q54.8115 276.118 52.1727 276.997 L52.1727 272.831 Q54.8347 272.09 57.1495 271.72 Q59.4875 271.349 61.5476 271.349 Q66.8717 271.349 69.9735 273.78 Q73.0753 276.187 73.0753 280.308 Q73.0753 283.178 71.4318 285.169 Q69.7883 287.136 66.7559 287.9 Z" fill="#000000" fill-rule="nonzero" fill-opacity="1"></path><path clip-path="url(#clip320)" d="M82.7512 300.655 L87.6354 300.655 L87.6354 306.534 L82.7512 306.534 L82.7512 300.655 Z" fill="#000000" fill-rule="nonzero" fill-opacity="1"></path><path clip-path="url(#clip320)" d="M107.821 275.053 Q104.209 275.053 102.381 278.618 Q100.575 282.159 100.575 289.289 Q100.575 296.395 102.381 299.96 Q104.209 303.502 107.821 303.502 Q111.455 303.502 113.26 299.96 Q115.089 296.395 115.089 289.289 Q115.089 282.159 113.26 278.618 Q111.455 275.053 107.821 275.053 M107.821 271.349 Q113.631 271.349 116.686 275.956 Q119.765 280.539 119.765 289.289 Q119.765 298.016 116.686 302.622 Q113.631 307.206 107.821 307.206 Q102.01 307.206 98.9317 302.622 Q95.8761 298.016 95.8761 289.289 Q95.8761 280.539 98.9317 275.956 Q102.01 271.349 107.821 271.349 Z" fill="#000000" fill-rule="nonzero" fill-opacity="1"></path><path clip-path="url(#clip320)" d="M67.7513 59.406 Q71.1078 60.1236 72.9827 62.3921 Q74.8809 64.6606 74.8809 67.9939 Q74.8809 73.1097 71.3624 75.9106 Q67.8439 78.7115 61.3624 78.7115 Q59.1865 78.7115 56.8717 78.2717 Q54.5801 77.855 52.1264 76.9985 L52.1264 72.4847 Q54.0708 73.6189 56.3856 74.1976 Q58.7004 74.7763 61.2236 74.7763 Q65.6217 74.7763 67.9133 73.0402 Q70.2281 71.3041 70.2281 67.9939 Q70.2281 64.9384 68.0754 63.2255 Q65.9457 61.4894 62.1263 61.4894 L58.0986 61.4894 L58.0986 57.6468 L62.3115 57.6468 Q65.7606 57.6468 67.5893 56.281 Q69.418 54.8922 69.418 52.2996 Q69.418 49.6376 67.5198 48.2255 Q65.6448 46.7904 62.1263 46.7904 Q60.205 46.7904 58.006 47.207 Q55.8069 47.6237 53.168 48.5033 L53.168 44.3367 Q55.8301 43.5959 58.1449 43.2256 Q60.4828 42.8552 62.543 42.8552 Q67.867 42.8552 70.9689 45.2857 Q74.0707 47.6931 74.0707 51.8135 Q74.0707 54.6838 72.4272 56.6746 Q70.7837 58.6421 67.7513 59.406 Z" fill="#000000" fill-rule="nonzero" fill-opacity="1"></path><path clip-path="url(#clip320)" d="M83.7466 72.1606 L88.6308 72.1606 L88.6308 78.0402 L83.7466 78.0402 L83.7466 72.1606 Z" fill="#000000" fill-rule="nonzero" fill-opacity="1"></path><path clip-path="url(#clip320)" d="M98.8622 43.4802 L117.219 43.4802 L117.219 47.4154 L103.145 47.4154 L103.145 55.8875 Q104.163 55.5403 105.182 55.3783 Q106.2 55.1931 107.219 55.1931 Q113.006 55.1931 116.385 58.3644 Q119.765 61.5356 119.765 66.9523 Q119.765 72.531 116.293 75.6328 Q112.82 78.7115 106.501 78.7115 Q104.325 78.7115 102.057 78.3411 Q99.8113 77.9707 97.4039 77.23 L97.4039 72.531 Q99.4872 73.6652 101.709 74.2208 Q103.932 74.7763 106.408 74.7763 Q110.413 74.7763 112.751 72.6698 Q115.089 70.5634 115.089 66.9523 Q115.089 63.3412 112.751 61.2347 Q110.413 59.1283 106.408 59.1283 Q104.534 59.1283 102.659 59.5449 Q100.807 59.9616 98.8622 60.8412 L98.8622 43.4802 Z" fill="#000000" fill-rule="nonzero" fill-opacity="1"></path><polyline clip-path="url(#clip322)" style="stroke:#009af9; stroke-linecap:round; stroke-linejoin:round; stroke-width:4; stroke-opacity:1; fill:none" points="217.944,1190.94 223.138,1192.38 228.333,1193.24 233.528,1193.9 238.722,1194.31 243.917,1194.43 249.111,1194.2 254.306,1193.55 259.5,1192.4 264.695,1190.65 269.89,1188.2 275.084,1184.92 280.279,1180.67 285.473,1175.27 290.668,1168.56 295.862,1160.3 301.057,1150.25 306.252,1138.12 311.446,1123.61 316.641,1106.32 321.835,1085.87 327.03,1061.77 332.224,1033.52 337.419,1000.59 342.614,962.399 347.808,918.4 353.003,868.098 358.197,811.126 363.392,747.348 368.586,676.98 373.781,600.741 378.976,520.005 384.17,436.93 389.365,354.515 394.559,276.539 399.754,207.33 404.948,151.347 410.143,112.629 415.338,94.1932 420.532,97.5426 425.727,122.397 430.921,166.746 436.116,227.194 441.31,299.512 446.505,379.224 451.699,462.141 456.894,544.705 462.089,624.179 467.283,698.659 472.478,766.988 477.672,828.622 482.867,883.471 488.061,931.754 493.256,973.889 498.451,1010.4 503.645,1041.84 508.84,1068.79 514.034,1091.77 519.229,1111.28 524.423,1127.78 529.618,1141.67 534.813,1153.3 540.007,1162.99 545.202,1171.01 550.396,1177.61 555.591,1182.99 560.785,1187.34 565.98,1190.82 571.175,1193.57 576.369,1195.73 581.564,1197.38 586.758,1198.64 591.953,1199.58 597.147,1200.26 602.342,1200.76 607.537,1201.1 612.731,1201.34 617.926,1201.51 623.12,1201.61 628.315,1201.67 633.509,1201.67 638.704,1201.62 643.899,1201.5 649.093,1201.28 654.288,1200.92 659.482,1200.38 664.677,1199.61 669.871,1198.54 675.066,1197.08 680.261,1195.15 685.455,1192.65 690.65,1189.46 695.844,1185.43 701.039,1180.41 706.233,1174.23 711.428,1166.68 716.623,1157.52 721.817,1146.48 727.012,1133.27 732.206,1117.53 737.401,1098.87 742.595,1076.85 747.79,1050.98 752.985,1020.71 758.179,985.494 763.374,944.741 768.568,897.903 773.763,844.513 778.957,784.274 784.152,717.169 789.346,643.598 794.541,564.542 799.736,481.706 804.93,397.641 810.125,315.741 815.319,240.136 820.514,175.343 825.708,125.81 830.903,95.268 836.098,86.1885 841.292,99.3137 846.487,133.568 851.681,186.208 856.876,253.326 862.07,330.416 867.265,413.001 872.46,497.069 877.654,579.373 882.849,657.525 888.043,729.961 893.238,795.82 898.432,854.789 903.627,906.947 908.822,952.629 914.016,992.323 919.211,1026.59 924.405,1056.01 929.6,1081.14 934.794,1102.51 939.989,1120.6 945.184,1135.85 950.378,1148.65 955.573,1159.32 960.767,1168.18 965.962,1175.47 971.156,1181.44 976.351,1186.28 981.546,1190.15 986.74,1193.23 991.935,1195.64 997.129,1197.49 1002.32,1198.9 1007.52,1199.94 1012.71,1200.69 1017.91,1201.23 1023.1,1201.59 1028.3,1201.83 1033.49,1201.98 1038.69,1202.07 1043.88,1202.1 1049.07,1202.09 1054.27,1202.03 1059.46,1201.91 1064.66,1201.72 1069.85,1201.41 1075.05,1200.95 1080.24,1200.3 1085.44,1199.39 1090.63,1198.14 1095.83,1196.49 1101.02,1194.32 1106.22,1191.54 1111.41,1188.01 1116.6,1183.58 1121.8,1178.11 1126.99,1171.38 1132.19,1163.19 1137.38,1153.3 1142.58,1141.41 1147.77,1127.21 1152.97,1110.33 1158.16,1090.35 1163.36,1066.82 1168.55,1039.22 1173.74,1007 1178.94,969.588 1184.13,926.41 1189.33,876.941 1194.52,820.77 1199.72,757.699 1204.91,687.861 1210.11,611.875 1215.3,531 1220.5,447.278 1225.69,363.608 1230.88,283.718 1236.08,211.939 1241.27,152.842 1246.47,110.646 1251.66,88.654 1256.86,88.6497 1262.05,110.65 1267.25,152.838 1272.44,211.942 1277.64,283.716 1282.83,363.61 1288.03,447.277 1293.22,531.001 1298.41,611.875 1303.61,687.861 1308.8,757.699 1314,820.77 1319.19,876.941 1324.39,926.41 1329.58,969.588 1334.78,1007 1339.97,1039.22 1345.17,1066.82 1350.36,1090.35 1355.55,1110.33 1360.75,1127.21 1365.94,1141.41 1371.14,1153.3 1376.33,1163.19 1381.53,1171.38 1386.72,1178.11 1391.92,1183.58 1397.11,1188.01 1402.31,1191.54 1407.5,1194.32 1412.69,1196.49 1417.89,1198.14 1423.08,1199.39 1428.28,1200.3 1433.47,1200.95 1438.67,1201.41 1443.86,1201.72 1449.06,1201.91 1454.25,1202.03 1459.45,1202.09 1464.64,1202.1 1469.84,1202.07 1475.03,1201.98 1480.22,1201.83 1485.42,1201.59 1490.61,1201.23 1495.81,1200.69 1501,1199.94 1506.2,1198.9 1511.39,1197.49 1516.59,1195.64 1521.78,1193.23 1526.98,1190.15 1532.17,1186.27 1537.36,1181.44 1542.56,1175.47 1547.75,1168.18 1552.95,1159.32 1558.14,1148.65 1563.34,1135.85 1568.53,1120.6 1573.73,1102.51 1578.92,1081.14 1584.12,1056.01 1589.31,1026.59 1594.5,992.323 1599.7,952.629 1604.89,906.946 1610.09,854.789 1615.28,795.82 1620.48,729.961 1625.67,657.525 1630.87,579.373 1636.06,497.069 1641.26,413 1646.45,330.418 1651.64,253.324 1656.84,186.21 1662.03,133.566 1667.23,99.3165 1672.42,86.1857 1677.62,95.2708 1682.81,125.807 1688.01,175.345 1693.2,240.134 1698.4,315.743 1703.59,397.639 1708.79,481.707 1713.98,564.541 1719.17,643.598 1724.37,717.169 1729.56,784.274 1734.76,844.513 1739.95,897.903 1745.15,944.741 1750.34,985.494 1755.54,1020.71 1760.73,1050.98 1765.93,1076.85 1771.12,1098.87 1776.31,1117.53 1781.51,1133.27 1786.7,1146.48 1791.9,1157.52 1797.09,1166.68 1802.29,1174.23 1807.48,1180.41 1812.68,1185.43 1817.87,1189.46 1823.07,1192.65 1828.26,1195.15 1833.45,1197.08 1838.65,1198.54 1843.84,1199.61 1849.04,1200.38 1854.23,1200.92 1859.43,1201.28 1864.62,1201.5 1869.82,1201.62 1875.01,1201.67 1880.21,1201.67 1885.4,1201.61 1890.6,1201.51 1895.79,1201.34 1900.98,1201.1 1906.18,1200.76 1911.37,1200.26 1916.57,1199.58 1921.76,1198.64 1926.96,1197.38 1932.15,1195.73 1937.35,1193.57 1942.54,1190.82 1947.74,1187.34 1952.93,1182.99 1958.12,1177.61 1963.32,1171.01 1968.51,1162.99 1973.71,1153.3 1978.9,1141.67 1984.1,1127.78 1989.29,1111.28 1994.49,1091.77 1999.68,1068.79 2004.88,1041.84 2010.07,1010.4 2015.26,973.889 2020.46,931.754 2025.65,883.471 2030.85,828.622 2036.04,766.988 2041.24,698.659 2046.43,624.179 2051.63,544.705 2056.82,462.141 2062.02,379.225 2067.21,299.512 2072.41,227.195 2077.6,166.745 2082.79,122.397 2087.99,97.5424 2093.18,94.1934 2098.38,112.629 2103.57,151.347 2108.77,207.33 2113.96,276.54 2119.16,354.515 2124.35,436.93 2129.55,520.005 2134.74,600.742 2139.93,676.98 2145.13,747.348 2150.32,811.126 2155.52,868.098 2160.71,918.4 2165.91,962.399 2171.1,1000.59 2176.3,1033.52 2181.49,1061.77 2186.69,1085.87 2191.88,1106.32 2197.07,1123.61 2202.27,1138.12 2207.46,1150.25 2212.66,1160.3 2217.85,1168.56 2223.05,1175.27 2228.24,1180.67 2233.44,1184.92 2238.63,1188.2 2243.83,1190.65 2249.02,1192.4 2254.21,1193.55 2259.41,1194.2 2264.6,1194.43 2269.8,1194.31 2274.99,1193.9 2280.19,1193.24 2285.38,1192.38 2290.58,1190.94 "></polyline>
<polyline clip-path="url(#clip322)" style="stroke:#e26f46; stroke-linecap:round; stroke-linejoin:round; stroke-width:4; stroke-opacity:1; fill:none" points="217.944,1376.42 223.138,1376.11 228.333,1375.48 233.528,1374.54 238.722,1373.26 243.917,1371.65 249.111,1369.68 254.306,1367.36 259.5,1364.66 264.695,1361.57 269.89,1358.08 275.084,1354.18 280.279,1349.84 285.473,1345.06 290.668,1339.83 295.862,1334.13 301.057,1327.95 306.252,1321.28 311.446,1314.13 316.641,1306.48 321.835,1298.36 327.03,1289.76 332.224,1280.72 337.419,1271.26 342.614,1261.44 347.808,1251.29 353.003,1240.91 358.197,1230.38 363.392,1219.82 368.586,1209.36 373.781,1199.16 378.976,1189.39 384.17,1180.24 389.365,1171.92 394.559,1164.63 399.754,1158.57 404.948,1153.93 410.143,1150.85 415.338,1149.42 420.532,1149.71 425.727,1151.7 430.921,1155.32 436.116,1160.46 441.31,1166.96 446.505,1174.64 451.699,1183.29 456.894,1192.71 462.089,1202.7 467.283,1213.06 472.478,1223.64 477.672,1234.28 482.867,1244.86 488.061,1255.27 493.256,1265.42 498.451,1275.24 503.645,1284.69 508.84,1293.73 514.034,1302.31 519.229,1310.44 524.423,1318.09 529.618,1325.27 534.813,1331.97 540.007,1338.2 545.202,1343.97 550.396,1349.29 555.591,1354.17 560.785,1358.63 565.98,1362.68 571.175,1366.33 576.369,1369.6 581.564,1372.51 586.758,1375.07 591.953,1377.28 597.147,1379.16 602.342,1380.72 607.537,1381.97 612.731,1382.91 617.926,1383.55 623.12,1383.9 628.315,1383.95 633.509,1383.7 638.704,1383.16 643.899,1382.31 649.093,1381.17 654.288,1379.71 659.482,1377.93 664.677,1375.82 669.871,1373.37 675.066,1370.57 680.261,1367.41 685.455,1363.87 690.65,1359.93 695.844,1355.59 701.039,1350.82 706.233,1345.62 711.428,1339.97 716.623,1333.86 721.817,1327.27 727.012,1320.21 732.206,1312.67 737.401,1304.64 742.595,1296.15 747.79,1287.2 752.985,1277.83 758.179,1268.06 763.374,1257.94 768.568,1247.55 773.763,1236.96 778.957,1226.27 784.152,1215.61 789.346,1205.11 794.541,1194.95 799.736,1185.31 804.93,1176.39 810.125,1168.39 815.319,1161.52 820.514,1155.99 825.708,1151.95 830.903,1149.53 836.098,1148.83 841.292,1149.85 846.487,1152.57 851.681,1156.9 856.876,1162.7 862.07,1169.79 867.265,1177.97 872.46,1187.04 877.654,1196.8 882.849,1207.03 888.043,1217.57 893.238,1228.25 898.432,1238.94 903.627,1249.5 908.822,1259.85 914.016,1269.91 919.211,1279.62 924.405,1288.92 929.6,1297.79 934.794,1306.2 939.989,1314.14 945.184,1321.61 950.378,1328.59 955.573,1335.09 960.767,1341.13 965.962,1346.7 971.156,1351.83 976.351,1356.53 981.546,1360.8 986.74,1364.68 991.935,1368.16 997.129,1371.27 1002.32,1374.01 1007.52,1376.41 1012.71,1378.47 1017.91,1380.2 1023.1,1381.62 1028.3,1382.72 1033.49,1383.53 1038.69,1384.03 1043.88,1384.24 1049.07,1384.15 1054.27,1383.77 1059.46,1383.09 1064.66,1382.11 1069.85,1380.82 1075.05,1379.22 1080.24,1377.3 1085.44,1375.04 1090.63,1372.44 1095.83,1369.48 1101.02,1366.15 1106.22,1362.44 1111.41,1358.33 1116.6,1353.81 1121.8,1348.86 1126.99,1343.47 1132.19,1337.62 1137.38,1331.31 1142.58,1324.52 1147.77,1317.26 1152.97,1309.51 1158.16,1301.29 1163.36,1292.6 1168.55,1283.47 1173.74,1273.93 1178.94,1264 1184.13,1253.76 1189.33,1243.27 1194.52,1232.62 1199.72,1221.92 1204.91,1211.3 1210.11,1200.92 1215.3,1190.94 1220.5,1181.57 1225.69,1172.99 1230.88,1165.43 1236.08,1159.08 1241.27,1154.14 1246.47,1150.74 1251.66,1149.02 1256.86,1149.02 1262.05,1150.74 1267.25,1154.14 1272.44,1159.08 1277.64,1165.43 1282.83,1172.99 1288.03,1181.57 1293.22,1190.94 1298.41,1200.92 1303.61,1211.3 1308.8,1221.92 1314,1232.62 1319.19,1243.27 1324.39,1253.76 1329.58,1264 1334.78,1273.93 1339.97,1283.47 1345.17,1292.6 1350.36,1301.29 1355.55,1309.51 1360.75,1317.26 1365.94,1324.52 1371.14,1331.31 1376.33,1337.62 1381.53,1343.47 1386.72,1348.86 1391.92,1353.81 1397.11,1358.33 1402.31,1362.44 1407.5,1366.15 1412.69,1369.48 1417.89,1372.44 1423.08,1375.04 1428.28,1377.3 1433.47,1379.22 1438.67,1380.82 1443.86,1382.11 1449.06,1383.09 1454.25,1383.77 1459.45,1384.15 1464.64,1384.24 1469.84,1384.03 1475.03,1383.53 1480.22,1382.72 1485.42,1381.62 1490.61,1380.2 1495.81,1378.47 1501,1376.41 1506.2,1374.01 1511.39,1371.27 1516.59,1368.16 1521.78,1364.68 1526.98,1360.8 1532.17,1356.53 1537.36,1351.83 1542.56,1346.7 1547.75,1341.13 1552.95,1335.09 1558.14,1328.59 1563.34,1321.61 1568.53,1314.14 1573.73,1306.2 1578.92,1297.79 1584.12,1288.92 1589.31,1279.62 1594.5,1269.91 1599.7,1259.85 1604.89,1249.5 1610.09,1238.94 1615.28,1228.25 1620.48,1217.57 1625.67,1207.03 1630.87,1196.8 1636.06,1187.04 1641.26,1177.97 1646.45,1169.79 1651.64,1162.7 1656.84,1156.9 1662.03,1152.57 1667.23,1149.85 1672.42,1148.83 1677.62,1149.53 1682.81,1151.95 1688.01,1155.99 1693.2,1161.52 1698.4,1168.39 1703.59,1176.39 1708.79,1185.31 1713.98,1194.95 1719.17,1205.11 1724.37,1215.61 1729.56,1226.27 1734.76,1236.96 1739.95,1247.55 1745.15,1257.94 1750.34,1268.06 1755.54,1277.83 1760.73,1287.2 1765.93,1296.15 1771.12,1304.64 1776.31,1312.67 1781.51,1320.21 1786.7,1327.27 1791.9,1333.86 1797.09,1339.97 1802.29,1345.62 1807.48,1350.82 1812.68,1355.59 1817.87,1359.93 1823.07,1363.87 1828.26,1367.41 1833.45,1370.57 1838.65,1373.37 1843.84,1375.82 1849.04,1377.93 1854.23,1379.71 1859.43,1381.17 1864.62,1382.31 1869.82,1383.16 1875.01,1383.7 1880.21,1383.95 1885.4,1383.9 1890.6,1383.55 1895.79,1382.91 1900.98,1381.97 1906.18,1380.72 1911.37,1379.16 1916.57,1377.28 1921.76,1375.07 1926.96,1372.51 1932.15,1369.6 1937.35,1366.33 1942.54,1362.68 1947.74,1358.63 1952.93,1354.17 1958.12,1349.29 1963.32,1343.97 1968.51,1338.2 1973.71,1331.97 1978.9,1325.27 1984.1,1318.09 1989.29,1310.44 1994.49,1302.31 1999.68,1293.73 2004.88,1284.69 2010.07,1275.24 2015.26,1265.42 2020.46,1255.27 2025.65,1244.86 2030.85,1234.28 2036.04,1223.64 2041.24,1213.06 2046.43,1202.7 2051.63,1192.71 2056.82,1183.29 2062.02,1174.64 2067.21,1166.96 2072.41,1160.46 2077.6,1155.32 2082.79,1151.7 2087.99,1149.71 2093.18,1149.42 2098.38,1150.85 2103.57,1153.93 2108.77,1158.57 2113.96,1164.63 2119.16,1171.92 2124.35,1180.24 2129.55,1189.39 2134.74,1199.16 2139.93,1209.36 2145.13,1219.82 2150.32,1230.38 2155.52,1240.91 2160.71,1251.29 2165.91,1261.44 2171.1,1271.26 2176.3,1280.72 2181.49,1289.76 2186.69,1298.36 2191.88,1306.48 2197.07,1314.13 2202.27,1321.28 2207.46,1327.95 2212.66,1334.13 2217.85,1339.83 2223.05,1345.06 2228.24,1349.84 2233.44,1354.18 2238.63,1358.08 2243.83,1361.57 2249.02,1364.66 2254.21,1367.36 2259.41,1369.68 2264.6,1371.65 2269.8,1373.26 2274.99,1374.54 2280.19,1375.48 2285.38,1376.11 2290.58,1376.42 "></polyline>
<path clip-path="url(#clip320)" d="M1792.73 248.629 L2279.52 248.629 L2279.52 93.1086 L1792.73 93.1086  Z" fill="#ffffff" fill-rule="evenodd" fill-opacity="1"></path>
<polyline clip-path="url(#clip320)" style="stroke:#000000; stroke-linecap:round; stroke-linejoin:round; stroke-width:4; stroke-opacity:1; fill:none" points="1792.73,248.629 2279.52,248.629 2279.52,93.1086 1792.73,93.1086 1792.73,248.629 "></polyline>
<polyline clip-path="url(#clip320)" style="stroke:#009af9; stroke-linecap:round; stroke-linejoin:round; stroke-width:4; stroke-opacity:1; fill:none" points="1817.14,144.949 1963.61,144.949 "></polyline>
<path clip-path="url(#clip320)" d="M2014.02 149.961 Q2014.02 150.148 2013.81 150.874 Q2013.6 151.6 2013.08 152.725 Q2012.59 153.849 2011.91 154.88 Q2011.23 155.887 2010.11 156.636 Q2009.01 157.362 2007.74 157.362 Q2006.06 157.362 2004.93 156.238 Q2003.81 155.114 2003.81 153.427 Q2003.81 152.49 2004.3 151.202 Q2007.41 142.887 2007.41 140.03 Q2007.41 136.68 2004.81 136.68 Q2003.53 136.68 2002.31 137.172 Q2001.11 137.641 2000.29 138.296 Q1999.47 138.952 1998.72 139.866 Q1998 140.756 1997.62 141.365 Q1997.27 141.95 1996.99 142.536 L1996.38 144.925 Q1996.24 145.581 1995.56 148.134 L1994.51 152.467 Q1993.76 155.699 1993.59 156.004 Q1993.36 156.66 1992.85 157.011 Q1992.33 157.362 1991.81 157.362 Q1991.23 157.362 1990.83 157.011 Q1990.43 156.66 1990.43 156.051 Q1990.43 155.957 1990.5 155.606 Q1990.57 155.254 1990.69 154.762 Q1990.81 154.271 1990.85 153.99 L1993.64 142.911 Q1994.16 140.896 1994.27 140.264 Q1994.41 139.608 1994.41 138.882 Q1994.41 136.68 1992.92 136.68 Q1991.7 136.68 1990.9 138.133 Q1990.1 139.585 1989.43 142.395 Q1989.21 143.168 1989.07 143.332 Q1988.96 143.496 1988.61 143.496 Q1988.02 143.473 1988.02 143.004 Q1988.02 142.887 1988.21 142.114 Q1988.4 141.341 1988.75 140.241 Q1989.12 139.116 1989.47 138.367 Q1989.78 137.805 1989.94 137.547 Q1990.13 137.266 1990.57 136.727 Q1991.04 136.165 1991.65 135.907 Q1992.28 135.626 1993.06 135.626 Q1994.79 135.626 1996.05 136.751 Q1997.32 137.851 1997.48 139.796 Q2000.6 135.626 2004.95 135.626 Q2007.53 135.626 2009.01 136.985 Q2010.48 138.343 2010.48 140.756 Q2010.48 141.318 2010.37 142.044 Q2010.27 142.747 2010.04 143.637 Q2009.83 144.527 2009.64 145.206 Q2009.45 145.885 2009.08 146.986 Q2008.7 148.064 2008.54 148.532 Q2008.37 149.001 2007.98 150.101 Q2007.6 151.179 2007.55 151.296 Q2006.69 153.474 2006.69 154.716 Q2006.69 155.535 2006.95 155.91 Q2007.23 156.285 2007.84 156.285 Q2009.48 156.285 2010.69 154.669 Q2011.93 153.029 2012.73 150.359 Q2012.92 149.773 2013.01 149.633 Q2013.13 149.492 2013.46 149.492 Q2014.02 149.492 2014.02 149.961 Z" fill="#000000" fill-rule="nonzero" fill-opacity="1"></path><path clip-path="url(#clip320)" d="M2020.53 144.831 Q2020.53 136.727 2023.56 130.192 Q2024.84 127.452 2026.65 125.156 Q2028.45 122.861 2029.65 121.854 Q2030.84 120.847 2031.17 120.847 Q2031.64 120.847 2031.66 121.315 Q2031.66 121.549 2031.03 122.135 Q2023.3 130.005 2023.32 144.831 Q2023.32 159.705 2030.84 167.27 Q2031.66 168.09 2031.66 168.347 Q2031.66 168.816 2031.17 168.816 Q2030.84 168.816 2029.69 167.856 Q2028.54 166.895 2026.76 164.694 Q2024.98 162.492 2023.7 159.798 Q2020.53 153.263 2020.53 144.831 Z" fill="#000000" fill-rule="nonzero" fill-opacity="1"></path><path clip-path="url(#clip320)" d="M2059.19 138.788 Q2059.19 140.1 2058.37 140.85 Q2057.55 141.576 2056.62 141.576 Q2055.73 141.576 2055.26 141.06 Q2054.79 140.545 2054.79 139.889 Q2054.79 138.999 2055.44 138.226 Q2056.1 137.453 2057.08 137.289 Q2056.12 136.68 2054.7 136.68 Q2053.76 136.68 2052.94 137.172 Q2052.14 137.664 2051.65 138.296 Q2051.18 138.929 2050.76 139.842 Q2050.36 140.732 2050.2 141.271 Q2050.06 141.786 2049.94 142.349 L2048.3 148.907 Q2047.5 152.022 2047.5 153.123 Q2047.5 154.481 2048.16 155.395 Q2048.82 156.285 2050.13 156.285 Q2050.64 156.285 2051.23 156.144 Q2051.81 155.98 2052.56 155.559 Q2053.34 155.114 2054.02 154.458 Q2054.72 153.779 2055.4 152.631 Q2056.08 151.483 2056.52 150.008 Q2056.66 149.492 2057.13 149.492 Q2057.72 149.492 2057.72 149.961 Q2057.72 150.359 2057.39 151.202 Q2057.08 152.022 2056.4 153.099 Q2055.75 154.153 2054.88 155.114 Q2054.02 156.051 2052.73 156.707 Q2051.44 157.362 2050.03 157.362 Q2048.02 157.362 2046.68 156.285 Q2045.35 155.207 2044.86 153.708 Q2044.74 153.919 2044.58 154.2 Q2044.41 154.481 2043.92 155.114 Q2043.45 155.723 2042.91 156.191 Q2042.37 156.636 2041.53 156.988 Q2040.71 157.362 2039.82 157.362 Q2038.7 157.362 2037.69 157.034 Q2036.71 156.707 2036 155.957 Q2035.3 155.207 2035.3 154.177 Q2035.3 153.029 2036.07 152.233 Q2036.87 151.413 2037.95 151.413 Q2038.63 151.413 2039.17 151.811 Q2039.73 152.209 2039.73 153.076 Q2039.73 154.036 2039.07 154.762 Q2038.42 155.489 2037.48 155.676 Q2038.44 156.285 2039.87 156.285 Q2041.41 156.285 2042.63 154.926 Q2043.85 153.568 2044.44 151.296 Q2045.89 145.838 2046.45 143.403 Q2047.01 140.943 2047.01 139.889 Q2047.01 138.905 2046.75 138.226 Q2046.5 137.547 2046.05 137.242 Q2045.63 136.915 2045.23 136.797 Q2044.86 136.68 2044.44 136.68 Q2043.73 136.68 2042.94 136.961 Q2042.16 137.242 2041.23 137.898 Q2040.31 138.531 2039.45 139.842 Q2038.58 141.154 2037.99 142.958 Q2037.88 143.496 2037.36 143.496 Q2036.8 143.473 2036.8 143.004 Q2036.8 142.606 2037.1 141.786 Q2037.43 140.943 2038.09 139.889 Q2038.77 138.835 2039.63 137.898 Q2040.52 136.938 2041.81 136.282 Q2043.12 135.626 2044.53 135.626 Q2045.16 135.626 2045.77 135.767 Q2046.4 135.884 2047.15 136.235 Q2047.93 136.587 2048.61 137.36 Q2049.28 138.133 2049.71 139.257 Q2049.99 138.718 2050.36 138.203 Q2050.76 137.687 2051.37 137.055 Q2052 136.399 2052.87 136.024 Q2053.76 135.626 2054.74 135.626 Q2055.7 135.626 2056.64 135.884 Q2057.58 136.118 2058.37 136.891 Q2059.19 137.641 2059.19 138.788 Z" fill="#000000" fill-rule="nonzero" fill-opacity="1"></path><path clip-path="url(#clip320)" d="M2063.14 156.051 Q2062.46 155.278 2062.46 154.271 Q2062.46 153.263 2063.12 152.514 Q2063.8 151.741 2065.01 151.741 Q2066.44 151.741 2067.26 153.123 Q2068.08 154.481 2068.08 156.777 Q2068.08 159.26 2067.07 161.555 Q2066.07 163.874 2065.08 164.975 Q2064.1 166.075 2063.7 166.075 Q2063.23 166.075 2063.23 165.56 Q2063.23 165.373 2063.56 165.021 Q2067 161.321 2067.03 156.777 Q2067.03 156.051 2066.93 156.051 L2066.82 156.144 Q2066 156.824 2065.01 156.824 Q2063.82 156.824 2063.14 156.051 Z" fill="#000000" fill-rule="nonzero" fill-opacity="1"></path><path clip-path="url(#clip320)" d="M2097.95 136.68 Q2097.95 137.336 2097.64 137.5 Q2097.34 137.641 2096.49 137.641 L2092 137.641 L2088.44 151.788 Q2088.16 153.029 2088.16 154.083 Q2088.16 155.254 2088.51 155.77 Q2088.88 156.285 2089.66 156.285 Q2091.18 156.285 2092.82 154.903 Q2094.48 153.521 2095.89 150.148 Q2096.07 149.703 2096.17 149.61 Q2096.28 149.492 2096.59 149.492 Q2097.17 149.492 2097.17 149.961 Q2097.17 150.125 2096.85 150.874 Q2096.54 151.624 2095.86 152.725 Q2095.21 153.826 2094.34 154.856 Q2093.5 155.887 2092.21 156.636 Q2090.92 157.362 2089.54 157.362 Q2087.59 157.362 2086.35 156.121 Q2085.13 154.88 2085.13 152.935 Q2085.13 152.303 2085.63 150.289 Q2086.12 148.251 2088.79 137.641 L2084.55 137.641 Q2083.96 137.641 2083.73 137.617 Q2083.52 137.594 2083.35 137.477 Q2083.21 137.336 2083.21 137.055 Q2083.21 136.61 2083.4 136.423 Q2083.59 136.212 2083.82 136.188 Q2084.08 136.142 2084.67 136.142 L2089.16 136.142 L2091.04 128.529 Q2091.22 127.78 2091.69 127.358 Q2092.18 126.913 2092.47 126.866 Q2092.75 126.796 2092.96 126.796 Q2093.59 126.796 2093.96 127.147 Q2094.34 127.475 2094.34 128.084 Q2094.34 128.412 2092.37 136.142 L2096.59 136.142 Q2097.13 136.142 2097.34 136.165 Q2097.57 136.188 2097.76 136.306 Q2097.95 136.423 2097.95 136.68 Z" fill="#000000" fill-rule="nonzero" fill-opacity="1"></path><path clip-path="url(#clip320)" d="M2113.66 149.539 Q2113.71 148.954 2114.62 148.954 L2144.01 148.954 Q2145.4 148.954 2145.42 149.492 Q2145.42 150.078 2144.11 150.055 L2114.95 150.055 Q2113.66 150.078 2113.66 149.539 M2113.66 140.17 Q2113.66 139.585 2114.67 139.608 L2143.97 139.608 Q2145.4 139.608 2145.42 140.17 Q2145.42 140.709 2144.2 140.709 L2114.62 140.709 Q2113.66 140.709 2113.66 140.17 Z" fill="#000000" fill-rule="nonzero" fill-opacity="1"></path><path clip-path="url(#clip320)" d="M2163.91 149.094 Q2163.91 147.665 2164.68 147.127 Q2165.46 146.565 2166.28 146.565 Q2167.38 146.565 2168.01 147.267 Q2168.67 147.947 2168.67 148.907 Q2168.67 149.867 2168.01 150.57 Q2167.38 151.249 2166.28 151.249 Q2165.74 151.249 2165.46 151.155 Q2166.09 153.357 2168.01 154.95 Q2169.95 156.543 2172.51 156.543 Q2175.72 156.543 2177.64 153.427 Q2178.78 151.413 2178.78 146.846 Q2178.78 142.817 2177.92 140.803 Q2176.58 137.734 2173.84 137.734 Q2169.95 137.734 2167.66 141.084 Q2167.38 141.505 2167.05 141.529 Q2166.58 141.529 2166.46 141.271 Q2166.37 140.99 2166.37 140.264 L2166.37 126.07 Q2166.37 124.922 2166.84 124.922 Q2167.03 124.922 2167.42 125.063 Q2170.45 126.398 2173.79 126.421 Q2177.24 126.421 2180.33 125.016 Q2180.56 124.875 2180.7 124.875 Q2181.17 124.875 2181.2 125.414 Q2181.2 125.602 2180.8 126.164 Q2180.42 126.702 2179.6 127.428 Q2178.78 128.131 2177.73 128.81 Q2176.68 129.49 2175.13 129.958 Q2173.61 130.403 2171.92 130.403 Q2169.91 130.403 2167.85 129.771 L2167.85 139.116 Q2170.33 136.68 2173.94 136.68 Q2177.78 136.68 2180.42 139.772 Q2183.07 142.864 2183.07 147.174 Q2183.07 151.694 2179.93 154.786 Q2176.82 157.878 2172.6 157.878 Q2168.76 157.878 2166.32 155.137 Q2163.91 152.397 2163.91 149.094 Z" fill="#000000" fill-rule="nonzero" fill-opacity="1"></path><path clip-path="url(#clip320)" d="M2187.85 141.482 Q2187.85 134.432 2189.63 130.59 Q2192.12 124.875 2197.97 124.875 Q2199.21 124.875 2200.5 125.227 Q2201.81 125.555 2203.45 126.843 Q2205.11 128.131 2206.12 130.239 Q2208.04 134.315 2208.04 141.482 Q2208.04 148.485 2206.26 152.303 Q2203.66 157.878 2197.92 157.878 Q2195.77 157.878 2193.57 156.777 Q2191.39 155.676 2190.01 153.029 Q2187.85 149.071 2187.85 141.482 M2191.83 140.896 Q2191.83 148.134 2192.35 151.015 Q2192.94 154.13 2194.53 155.489 Q2196.14 156.824 2197.92 156.824 Q2199.84 156.824 2201.44 155.395 Q2203.05 153.943 2203.55 150.827 Q2204.08 147.759 2204.06 140.896 Q2204.06 134.221 2203.59 131.551 Q2202.96 128.436 2201.27 127.194 Q2199.61 125.929 2197.92 125.929 Q2197.29 125.929 2196.61 126.117 Q2195.96 126.304 2195 126.843 Q2194.04 127.382 2193.29 128.717 Q2192.56 130.052 2192.21 132.066 Q2191.83 134.666 2191.83 140.896 Z" fill="#000000" fill-rule="nonzero" fill-opacity="1"></path><path clip-path="url(#clip320)" d="M2211.79 141.482 Q2211.79 134.432 2213.57 130.59 Q2216.06 124.875 2221.91 124.875 Q2223.15 124.875 2224.44 125.227 Q2225.75 125.555 2227.39 126.843 Q2229.06 128.131 2230.06 130.239 Q2231.98 134.315 2231.98 141.482 Q2231.98 148.485 2230.2 152.303 Q2227.6 157.878 2221.87 157.878 Q2219.71 157.878 2217.51 156.777 Q2215.33 155.676 2213.95 153.029 Q2211.79 149.071 2211.79 141.482 M2215.78 140.896 Q2215.78 148.134 2216.29 151.015 Q2216.88 154.13 2218.47 155.489 Q2220.09 156.824 2221.87 156.824 Q2223.79 156.824 2225.38 155.395 Q2227 153.943 2227.49 150.827 Q2228.03 147.759 2228 140.896 Q2228 134.221 2227.53 131.551 Q2226.9 128.436 2225.22 127.194 Q2223.55 125.929 2221.87 125.929 Q2221.23 125.929 2220.55 126.117 Q2219.9 126.304 2218.94 126.843 Q2217.98 127.382 2217.23 128.717 Q2216.5 130.052 2216.15 132.066 Q2215.78 134.666 2215.78 140.896 Z" fill="#000000" fill-rule="nonzero" fill-opacity="1"></path><path clip-path="url(#clip320)" d="M2236.7 168.347 Q2236.7 168.113 2237.31 167.528 Q2245.03 159.658 2245.03 144.831 Q2245.03 129.958 2237.61 122.439 Q2236.7 121.573 2236.7 121.315 Q2236.7 120.847 2237.16 120.847 Q2237.49 120.847 2238.64 121.807 Q2239.81 122.767 2241.57 124.969 Q2243.35 127.171 2244.66 129.864 Q2247.82 136.399 2247.82 144.831 Q2247.82 152.935 2244.8 159.47 Q2243.51 162.211 2241.71 164.506 Q2239.91 166.802 2238.71 167.809 Q2237.52 168.816 2237.16 168.816 Q2236.7 168.816 2236.7 168.347 Z" fill="#000000" fill-rule="nonzero" fill-opacity="1"></path><polyline clip-path="url(#clip320)" style="stroke:#e26f46; stroke-linecap:round; stroke-linejoin:round; stroke-width:4; stroke-opacity:1; fill:none" points="1817.14,196.789 1963.61,196.789 "></polyline>
<path clip-path="url(#clip320)" d="M2006.5 203.113 Q2006.69 203.323 2006.69 203.534 Q2006.69 203.745 2006.22 204.354 Q2005.77 204.963 2004.81 205.783 Q2003.85 206.602 2002.61 207.375 Q2001.37 208.148 1999.54 208.664 Q1997.72 209.202 1995.8 209.202 Q1992.21 209.202 1990.1 206.837 Q1988.02 204.471 1988.02 201.075 Q1988.02 197.772 1989.87 194.61 Q1991.72 191.425 1994.72 189.457 Q1997.72 187.466 2000.88 187.466 Q2003.39 187.466 2004.95 188.637 Q2006.52 189.809 2006.52 191.589 Q2006.52 192.971 2005.73 193.814 Q2004.93 194.657 2003.85 194.657 Q2003.1 194.657 2002.59 194.235 Q2002.07 193.79 2002.07 192.971 Q2002.07 191.917 2002.94 191.097 Q2003.27 190.769 2003.64 190.628 Q2004.04 190.464 2004.28 190.464 Q2004.51 190.441 2005.05 190.441 Q2004.56 189.527 2003.39 189.036 Q2002.24 188.52 2000.93 188.52 Q1998.98 188.52 1997.13 189.879 Q1995.28 191.214 1994.16 193.322 Q1993.03 195.383 1992.31 198.311 Q1991.58 201.215 1991.58 202.902 Q1991.58 205.221 1992.66 206.673 Q1993.74 208.125 1995.89 208.125 Q1996.31 208.125 1996.76 208.101 Q1997.23 208.078 1998.4 207.82 Q1999.59 207.563 2000.65 207.118 Q2001.7 206.673 2003.03 205.712 Q2004.39 204.729 2005.47 203.394 Q2005.84 202.902 2006.1 202.902 Q2006.31 202.902 2006.5 203.113 Z" fill="#000000" fill-rule="nonzero" fill-opacity="1"></path><path clip-path="url(#clip320)" d="M2011.07 196.671 Q2011.07 188.567 2014.09 182.032 Q2015.38 179.292 2017.18 176.996 Q2018.98 174.701 2020.18 173.694 Q2021.37 172.687 2021.7 172.687 Q2022.17 172.687 2022.19 173.155 Q2022.19 173.389 2021.56 173.975 Q2013.83 181.845 2013.85 196.671 Q2013.85 211.545 2021.37 219.11 Q2022.19 219.93 2022.19 220.187 Q2022.19 220.656 2021.7 220.656 Q2021.37 220.656 2020.22 219.696 Q2019.08 218.735 2017.3 216.534 Q2015.52 214.332 2014.23 211.638 Q2011.07 205.103 2011.07 196.671 Z" fill="#000000" fill-rule="nonzero" fill-opacity="1"></path><path clip-path="url(#clip320)" d="M2049.72 190.628 Q2049.72 191.94 2048.9 192.69 Q2048.08 193.416 2047.15 193.416 Q2046.26 193.416 2045.79 192.9 Q2045.32 192.385 2045.32 191.729 Q2045.32 190.839 2045.98 190.066 Q2046.63 189.293 2047.62 189.129 Q2046.66 188.52 2045.23 188.52 Q2044.29 188.52 2043.47 189.012 Q2042.67 189.504 2042.18 190.136 Q2041.71 190.769 2041.29 191.682 Q2040.89 192.572 2040.73 193.111 Q2040.59 193.626 2040.47 194.189 L2038.83 200.747 Q2038.04 203.862 2038.04 204.963 Q2038.04 206.321 2038.69 207.235 Q2039.35 208.125 2040.66 208.125 Q2041.17 208.125 2041.76 207.984 Q2042.35 207.82 2043.1 207.399 Q2043.87 206.954 2044.55 206.298 Q2045.25 205.619 2045.93 204.471 Q2046.61 203.323 2047.05 201.848 Q2047.19 201.332 2047.66 201.332 Q2048.25 201.332 2048.25 201.801 Q2048.25 202.199 2047.92 203.042 Q2047.62 203.862 2046.94 204.939 Q2046.28 205.993 2045.41 206.954 Q2044.55 207.891 2043.26 208.547 Q2041.97 209.202 2040.57 209.202 Q2038.55 209.202 2037.22 208.125 Q2035.88 207.047 2035.39 205.548 Q2035.27 205.759 2035.11 206.04 Q2034.94 206.321 2034.45 206.954 Q2033.98 207.563 2033.45 208.031 Q2032.91 208.476 2032.06 208.828 Q2031.24 209.202 2030.35 209.202 Q2029.23 209.202 2028.22 208.874 Q2027.24 208.547 2026.54 207.797 Q2025.83 207.047 2025.83 206.017 Q2025.83 204.869 2026.61 204.073 Q2027.4 203.253 2028.48 203.253 Q2029.16 203.253 2029.7 203.651 Q2030.26 204.049 2030.26 204.916 Q2030.26 205.876 2029.6 206.602 Q2028.95 207.329 2028.01 207.516 Q2028.97 208.125 2030.4 208.125 Q2031.95 208.125 2033.16 206.766 Q2034.38 205.408 2034.97 203.136 Q2036.42 197.678 2036.98 195.243 Q2037.54 192.783 2037.54 191.729 Q2037.54 190.745 2037.29 190.066 Q2037.03 189.387 2036.58 189.082 Q2036.16 188.755 2035.76 188.637 Q2035.39 188.52 2034.97 188.52 Q2034.27 188.52 2033.47 188.801 Q2032.7 189.082 2031.76 189.738 Q2030.85 190.371 2029.98 191.682 Q2029.11 192.994 2028.53 194.798 Q2028.41 195.336 2027.89 195.336 Q2027.33 195.313 2027.33 194.844 Q2027.33 194.446 2027.64 193.626 Q2027.96 192.783 2028.62 191.729 Q2029.3 190.675 2030.17 189.738 Q2031.06 188.778 2032.34 188.122 Q2033.66 187.466 2035.06 187.466 Q2035.69 187.466 2036.3 187.607 Q2036.94 187.724 2037.68 188.075 Q2038.46 188.427 2039.14 189.2 Q2039.82 189.973 2040.24 191.097 Q2040.52 190.558 2040.89 190.043 Q2041.29 189.527 2041.9 188.895 Q2042.53 188.239 2043.4 187.864 Q2044.29 187.466 2045.27 187.466 Q2046.23 187.466 2047.17 187.724 Q2048.11 187.958 2048.9 188.731 Q2049.72 189.481 2049.72 190.628 Z" fill="#000000" fill-rule="nonzero" fill-opacity="1"></path><path clip-path="url(#clip320)" d="M2053.67 207.891 Q2052.99 207.118 2052.99 206.111 Q2052.99 205.103 2053.65 204.354 Q2054.33 203.581 2055.55 203.581 Q2056.97 203.581 2057.79 204.963 Q2058.61 206.321 2058.61 208.617 Q2058.61 211.1 2057.61 213.395 Q2056.6 215.714 2055.62 216.815 Q2054.63 217.915 2054.23 217.915 Q2053.77 217.915 2053.77 217.4 Q2053.77 217.213 2054.09 216.861 Q2057.54 213.161 2057.56 208.617 Q2057.56 207.891 2057.47 207.891 L2057.35 207.984 Q2056.53 208.664 2055.55 208.664 Q2054.35 208.664 2053.67 207.891 Z" fill="#000000" fill-rule="nonzero" fill-opacity="1"></path><path clip-path="url(#clip320)" d="M2088.48 188.52 Q2088.48 189.176 2088.17 189.34 Q2087.87 189.481 2087.03 189.481 L2082.53 189.481 L2078.97 203.628 Q2078.69 204.869 2078.69 205.923 Q2078.69 207.094 2079.04 207.61 Q2079.41 208.125 2080.19 208.125 Q2081.71 208.125 2083.35 206.743 Q2085.01 205.361 2086.42 201.988 Q2086.6 201.543 2086.7 201.45 Q2086.82 201.332 2087.12 201.332 Q2087.71 201.332 2087.71 201.801 Q2087.71 201.965 2087.38 202.714 Q2087.07 203.464 2086.39 204.565 Q2085.74 205.666 2084.87 206.696 Q2084.03 207.727 2082.74 208.476 Q2081.45 209.202 2080.07 209.202 Q2078.13 209.202 2076.88 207.961 Q2075.67 206.72 2075.67 204.775 Q2075.67 204.143 2076.16 202.129 Q2076.65 200.091 2079.32 189.481 L2075.08 189.481 Q2074.5 189.481 2074.26 189.457 Q2074.05 189.434 2073.89 189.317 Q2073.75 189.176 2073.75 188.895 Q2073.75 188.45 2073.93 188.263 Q2074.12 188.052 2074.35 188.028 Q2074.61 187.982 2075.2 187.982 L2079.7 187.982 L2081.57 180.369 Q2081.76 179.62 2082.22 179.198 Q2082.72 178.753 2083 178.706 Q2083.28 178.636 2083.49 178.636 Q2084.12 178.636 2084.5 178.987 Q2084.87 179.315 2084.87 179.924 Q2084.87 180.252 2082.9 187.982 L2087.12 187.982 Q2087.66 187.982 2087.87 188.005 Q2088.1 188.028 2088.29 188.146 Q2088.48 188.263 2088.48 188.52 Z" fill="#000000" fill-rule="nonzero" fill-opacity="1"></path><path clip-path="url(#clip320)" d="M2104.19 201.379 Q2104.24 200.794 2105.15 200.794 L2134.55 200.794 Q2135.93 200.794 2135.95 201.332 Q2135.95 201.918 2134.64 201.895 L2105.48 201.895 Q2104.19 201.918 2104.19 201.379 M2104.19 192.01 Q2104.19 191.425 2105.2 191.448 L2134.5 191.448 Q2135.93 191.448 2135.95 192.01 Q2135.95 192.549 2134.73 192.549 L2105.15 192.549 Q2104.19 192.549 2104.19 192.01 Z" fill="#000000" fill-rule="nonzero" fill-opacity="1"></path><path clip-path="url(#clip320)" d="M2154.44 200.934 Q2154.44 199.505 2155.22 198.967 Q2155.99 198.405 2156.81 198.405 Q2157.91 198.405 2158.54 199.107 Q2159.2 199.787 2159.2 200.747 Q2159.2 201.707 2158.54 202.41 Q2157.91 203.089 2156.81 203.089 Q2156.27 203.089 2155.99 202.995 Q2156.62 205.197 2158.54 206.79 Q2160.49 208.383 2163.04 208.383 Q2166.25 208.383 2168.17 205.267 Q2169.32 203.253 2169.32 198.686 Q2169.32 194.657 2168.45 192.643 Q2167.11 189.574 2164.37 189.574 Q2160.49 189.574 2158.19 192.924 Q2157.91 193.345 2157.58 193.369 Q2157.11 193.369 2157 193.111 Q2156.9 192.83 2156.9 192.104 L2156.9 177.91 Q2156.9 176.762 2157.37 176.762 Q2157.56 176.762 2157.96 176.903 Q2160.98 178.238 2164.33 178.261 Q2167.77 178.261 2170.86 176.856 Q2171.1 176.715 2171.24 176.715 Q2171.7 176.715 2171.73 177.254 Q2171.73 177.442 2171.33 178.004 Q2170.96 178.542 2170.14 179.268 Q2169.32 179.971 2168.26 180.65 Q2167.21 181.33 2165.66 181.798 Q2164.14 182.243 2162.45 182.243 Q2160.44 182.243 2158.38 181.611 L2158.38 190.956 Q2160.86 188.52 2164.47 188.52 Q2168.31 188.52 2170.96 191.612 Q2173.6 194.704 2173.6 199.014 Q2173.6 203.534 2170.46 206.626 Q2167.35 209.718 2163.13 209.718 Q2159.29 209.718 2156.85 206.977 Q2154.44 204.237 2154.44 200.934 Z" fill="#000000" fill-rule="nonzero" fill-opacity="1"></path><path clip-path="url(#clip320)" d="M2178.38 193.322 Q2178.38 186.272 2180.16 182.43 Q2182.65 176.715 2188.5 176.715 Q2189.74 176.715 2191.03 177.067 Q2192.34 177.395 2193.98 178.683 Q2195.65 179.971 2196.65 182.079 Q2198.57 186.155 2198.57 193.322 Q2198.57 200.325 2196.79 204.143 Q2194.19 209.718 2188.46 209.718 Q2186.3 209.718 2184.1 208.617 Q2181.92 207.516 2180.54 204.869 Q2178.38 200.911 2178.38 193.322 M2182.37 192.736 Q2182.37 199.974 2182.88 202.855 Q2183.47 205.97 2185.06 207.329 Q2186.68 208.664 2188.46 208.664 Q2190.38 208.664 2191.97 207.235 Q2193.59 205.783 2194.08 202.667 Q2194.62 199.599 2194.59 192.736 Q2194.59 186.061 2194.12 183.391 Q2193.49 180.276 2191.81 179.034 Q2190.14 177.769 2188.46 177.769 Q2187.82 177.769 2187.14 177.957 Q2186.49 178.144 2185.53 178.683 Q2184.57 179.222 2183.82 180.557 Q2183.09 181.892 2182.74 183.906 Q2182.37 186.506 2182.37 192.736 Z" fill="#000000" fill-rule="nonzero" fill-opacity="1"></path><path clip-path="url(#clip320)" d="M2202.33 193.322 Q2202.33 186.272 2204.11 182.43 Q2206.59 176.715 2212.44 176.715 Q2213.69 176.715 2214.97 177.067 Q2216.29 177.395 2217.93 178.683 Q2219.59 179.971 2220.6 182.079 Q2222.52 186.155 2222.52 193.322 Q2222.52 200.325 2220.74 204.143 Q2218.14 209.718 2212.4 209.718 Q2210.24 209.718 2208.04 208.617 Q2205.86 207.516 2204.48 204.869 Q2202.33 200.911 2202.33 193.322 M2206.31 192.736 Q2206.31 199.974 2206.82 202.855 Q2207.41 205.97 2209 207.329 Q2210.62 208.664 2212.4 208.664 Q2214.32 208.664 2215.91 207.235 Q2217.53 205.783 2218.02 202.667 Q2218.56 199.599 2218.53 192.736 Q2218.53 186.061 2218.07 183.391 Q2217.43 180.276 2215.75 179.034 Q2214.08 177.769 2212.4 177.769 Q2211.77 177.769 2211.09 177.957 Q2210.43 178.144 2209.47 178.683 Q2208.51 179.222 2207.76 180.557 Q2207.03 181.892 2206.68 183.906 Q2206.31 186.506 2206.31 192.736 Z" fill="#000000" fill-rule="nonzero" fill-opacity="1"></path><path clip-path="url(#clip320)" d="M2227.23 220.187 Q2227.23 219.953 2227.84 219.368 Q2235.57 211.498 2235.57 196.671 Q2235.57 181.798 2228.14 174.279 Q2227.23 173.413 2227.23 173.155 Q2227.23 172.687 2227.7 172.687 Q2228.02 172.687 2229.17 173.647 Q2230.34 174.607 2232.1 176.809 Q2233.88 179.011 2235.19 181.704 Q2238.35 188.239 2238.35 196.671 Q2238.35 204.775 2235.33 211.31 Q2234.04 214.051 2232.24 216.346 Q2230.44 218.642 2229.24 219.649 Q2228.05 220.656 2227.7 220.656 Q2227.23 220.656 2227.23 220.187 Z" fill="#000000" fill-rule="nonzero" fill-opacity="1"></path></svg>